<?xml version="1.0" encoding="utf-8"?>
<!-- Generator: Adobe Illustrator 27.9.0, SVG Export Plug-In . SVG Version: 6.00 Build 0)  -->
<svg version="1.1" id="Layer_1" xmlns="http://www.w3.org/2000/svg" xmlns:xlink="http://www.w3.org/1999/xlink" x="0px" y="0px"
	 viewBox="0 0 750 234" style="enable-background:new 0 0 750 234;" xml:space="preserve">
<g>
	<g>
		<path d="M497.89,128.86c47.01,8.14,108.42-3.17,213.11-4.25c-91.23-6.39-172.04-9.91-181.25-9.91c-9.2,0-37.7-5.83-52.39-5.66
			c-19.41,0.21-37.52,7.01-48.57,22.96c-4.1,5.91-7.77,11.02-9.84,12.79c-4.96,4.25-21.24,5.66-26.9,12.04
			c-2.83,4.25-4.61,10.3-5.66,12.74c-2.15,4.77-12.3,9.35-23.99,8.87c-4.54-0.19-7.85-4.36-7.13-8.85
			c1.61-10,5.61-14.27,12.71-31.88c8.14-17.35,14.19-20.5,27.13-22.38c1.86-0.27,3.8,0.27,5.12,1.61c2.71,2.76,1.77,7.31-0.39,12.28
			c-1.1,2.99-28.04,4.14-43.83,2.83c-13.22-0.14-26.9-1.42-33.98,3.54c-4.73,3.31-12.23,13.11-21.31,24.78
			c-9.91,12.74-25.53,19.72-40.36,17.7c-15.58-2.12-21.24-9.91-21.95-20.53c-1.42-19.82,9.91-44.6,9.91-44.6
			c10.55-24.78,29.74-53.81,53.81-53.81c14.03,1.83,16.28,14.87,16.99,26.9c0,7.79,1.35,9.91,12.74,8.5
			c8.5-0.71,9.91-5.66,11.09-12.74c-0.47-29.74-21-43.9-40.05-44.6c-20.6,0-36.18,4.25-51.04,21.95
			c-12.74,16.99-22.66,38.94-31.86,60.89c-8.5,24.78-18.16,23.63-31.79,21.95c-67.33-7.79-119.72-26.9-133.88-29.74
			c-15.41-3.08-26.9,28.32,4.96,56.64c21.24,17.7,34.46,25.72,43.9,26.9c11.33,1.42,24.07-1.42,38.23-10.62
			c21.95-12.74,52.39-77.88,56.64-84.25s9.98-20.53,13.52-29.74c3.54-9.2-12.81-25.49-25.56-20.53c0,0-31.86,39.65-45.95,44.6
			c-9.91,3.54-28.39,1.42-52.46-5.66c-9.91-3.54-17.63-8.5-17.63-16.99C70.69,62.2,77.44,57.43,85.55,57
			c11.26,0,16.02,7.83,16.92,15.58c0.21,2.68,0.71,25.49-28.25,69.38c-12.81,20.53-24.85,30.44-32.64,36.82c0,0-3.54,9.2,4.25,14.87
			c7.79,5.66,14.87,0.71,14.87,0.71c19.82-14.87,31.46-33.19,43.9-55.93c10.22-23.74,19.53-50.38,19.82-65.84
			c-1.42-21.24-9.2-36.82-38.87-35.81c-21.31-0.3-37.01,18.19-35.47,34.4c1.42,14.87,11.33,28.32,23.36,33.28
			c0,0,29.74,9.91,47.44,11.33c12.04,0.71,27.48-1.73,35.4-4.96c19.12-7.79,31.15-34.69,31.15-34.69s-39.65,67.26-55.93,87.79
			c-7.08,8.5-13.45,12.04-24.78,12.04c-12.74-0.71-26.9-17.7-34.69-24.78c-4.09-3.72-13.52-16.99-5.66-16.28
			c6.57,0.59,29.15,8.02,38.23,10.62c29.74,8.5,75.76,18.41,75.76,18.41c13.9,2.57,24.78,5.66,35.4-2.83c0,0,0.58,14.97,11.33,24.78
			c8.65,7.9,15.22,11.33,47.5,11.33c13.74-0.35,26.72-6.15,38.16-18.41c5.66-6.37,13-20.97,21.95-25.49
			c8.5-4.3,24.78-3.54,35.4-3.54c10.62,0,25.49,0.71,33.98-2.83c8.5-3.54,19.82-15.58,19.82-29.74s-16.99-19.12-29.03-19.12
			s-30.64,4.6-38.23,17.7c-5.91,10.2-18.5,36.28-21.44,58.02c-1.59,11.7,6.99,22.31,18.77,23.2c10.41,0.79,22.09-0.22,27.67-0.82
			c3.86-0.42,7.61-1.64,10.86-3.77c10.55-6.92,11.93-19.4,17.24-23.53c2.95-2.3,6.52-3.07,10.27-3.74
			c7.51-1.33,14.12-5.71,18.27-12.11C446.05,141.04,461.53,122.57,497.89,128.86z"/>
	</g>
</g>
</svg>
