<?xml version="1.0" encoding="utf-8"?>
<!-- Generator: Adobe Illustrator 27.9.0, SVG Export Plug-In . SVG Version: 6.00 Build 0)  -->
<svg version="1.1" id="Layer_1" xmlns="http://www.w3.org/2000/svg" xmlns:xlink="http://www.w3.org/1999/xlink" x="0px" y="0px"
	 viewBox="0 0 395.41 101.47" style="enable-background:new 0 0 395.41 101.47;" xml:space="preserve">
<g>
	<path d="M318.46,50.91c-2.74,0-7.68-0.71-13.4-1.53c-7.07-1.02-15.1-2.17-20.4-2.17h-0.39c-9.34,0.1-22.15,2.64-30.12,14.15
		c-3.09,4.46-5.3,7.47-6.76,8.72c-1.71,1.47-4.59,2.35-7.93,3.37c-3.56,1.09-7.59,2.32-9.36,4.21c-1.19,1.84-2.1,4.32-2.77,6.12
		c-0.26,0.7-0.48,1.3-0.68,1.76c-1.8,4-8.83,7-16.36,7c-0.39,0-0.79-0.01-1.18-0.03c-1.95-0.08-3.79-1-5.03-2.52
		c-1.26-1.54-1.8-3.56-1.48-5.52c0.67-4.11,1.89-6.82,3.74-10.71c0,0,0,0,0,0l0.92-1.97l0.48-0.98l1.07,0.01c0,0,0.49,0,1.07,0.01
		c0.59,0.01,1.27,0.01,1.61,0.01c0.96,0.01,1.87,0.01,2.74,0.01c0.96,0,1.97,0.01,3.02,0.02c1.12,0.01,2.27,0.02,3.45,0.02
		c5.44,0,11.52-0.22,15.35-1.82c4.98-2.07,12.34-9.39,12.34-18.51c0-9.09-11.76-11.5-17.97-11.5c-8.53,0-19.71,3.46-24.11,11.07
		c-1.57,2.69-3.42,6.34-5.11,10.07c-0.07,0.12-0.12,0.25-0.18,0.38l-0.27,0.59l-0.44,0.97l-1.05-0.02l-2.12-0.04h-0.04
		c-0.45-0.01-0.88-0.01-1.32-0.01c-4.34,0-9.14,0.25-11.81,2.12c-2.7,1.88-7.29,7.79-12.6,14.63l-0.89,1.14
		c-6.1,7.85-15.28,12.54-24.55,12.54c-1.21,0-2.42-0.08-3.61-0.25c-10.05-1.37-15.43-6.49-16.02-15.21
		c-0.94-13.16,6.2-29.09,6.63-30.05c4.66-10.93,17.56-36.29,36.92-36.29h0.13l0.12,0.01c11.75,1.53,12.46,13.6,12.8,19.39v0.12
		c0,1.25,0.05,2.76,0.45,3.32c0.32,0.44,1.46,0.54,2.36,0.54c0.86,0,1.95-0.08,3.32-0.25l0.04-0.01h0.04
		c3.98-0.33,4.69-2.06,5.44-6.52c-0.16-8.29-2.91-15.25-7.93-20.12c-4.34-4.21-10.13-6.67-16.3-6.9
		c-12.54,0.01-22.24,2.29-31.76,13.59c-8.48,11.33-15.03,26.18-20.5,39.23c-3.98,11.58-8.66,16.09-16.66,16.09
		c-1.98,0-4.02-0.25-6.16-0.52c-2.11-0.24-4.26-0.51-6.4-0.8l-2.13-0.26l-2.33-0.29l1.22-1.89l1.17-1.81
		c4.01-6.95,7.57-13.74,9.97-18.31c1.76-3.37,2.93-5.6,3.53-6.5c2.02-3.04,5.01-9.62,8.63-19.03c0.5-1.31-0.02-3.28-1.39-5.28
		c-2-2.93-6.05-6.07-10.2-6.07c-0.72,0-1.43,0.1-2.09,0.31c-3.39,4.18-21.46,26.12-30.52,29.3c-2.25,0.8-5.11,1.21-8.49,1.21
		c-1.2,0-2.48-0.05-3.83-0.16c-0.35-0.03-0.72-0.07-1.1-0.12c-0.17-0.02-0.34-0.04-0.5-0.06c-0.12-0.01-0.25-0.03-0.37-0.05
		c-1.16-0.14-2.1-0.28-2.1-0.28c0.12-0.31,0.36-1.07,0.59-1.82c0.31-0.95,0.6-1.89,0.6-1.89c1.49-5.5,2.29-10.01,2.36-13.42
		C50.82,6.23,44.54,0,30.18,0c-0.54,0-1.1,0.01-1.66,0.03l-0.05,0.01h-0.05c-0.1-0.01-0.2-0.01-0.3-0.01
		c-6.01,0-11.8,2.59-15.9,7.08C8.68,11,6.82,15.95,7.24,20.34c0.84,8.75,6.58,16.99,13.99,20.08c0.57,0.19,4.94,1.62,10.51,3.17
		l1.94,0.46l1.95,0.46l-0.88,1.92h-0.01l-0.83,1.81c-0.59,1.24-1.21,2.49-1.87,3.77c0,0,0,0-0.01,0.01c0,0.01-0.01,0.04-0.03,0.07
		c-0.05,0.1-0.14,0.29-0.25,0.54c-0.04,0.08-0.08,0.17-0.12,0.26c0,0.01,0,0.01-0.01,0.01c-0.04,0.09-0.08,0.19-0.13,0.28
		c-0.1,0.2-0.2,0.42-0.31,0.63c-0.38,0.78-0.77,1.55-0.91,1.7l-2.05-0.54l-1.96-0.51c-2.73-0.78-5.23-1.5-7.5-2.16
		c-4.96-1.44-8.89-2.58-11.1-3.02c-0.33-0.07-0.66-0.1-0.98-0.1c-2.32,0-4.43,1.75-5.63,4.69c-2.28,5.53-1.43,15.4,8.04,25.59
		l1.43,1.33l1.5,1.4l-1.48,1.48l-1.38,1.38L1.6,91.86c-1.01,0.91-1.52,2.28-1.26,3.62c0.28,1.44,1.04,2.99,2.75,4.23
		c0.97,0.74,2.41,1.48,3.4,1.68c1.18,0.25,2.41-0.05,3.34-0.81l8.91-7.81l1.4-1.4l1.34-1.33l1.55,1.07l1.62,1.13
		c6.74,4.76,11.71,7.22,15.55,7.7c1.11,0.14,2.25,0.22,3.38,0.22c6.46,0,13.28-2.3,20.27-6.84l0.05-0.03l0.04-0.02
		c3.45-2.01,7.66-6.47,12.51-13.27l1.27-1.72l1.36-1.86l1.85,0.5l2,0.54c4.49,1.01,7.47,1.65,7.8,1.72
		c0.79,0.14,1.57,0.29,2.33,0.44c3.66,0.71,6.82,1.31,9.78,1.31c3.73,0,6.63-0.99,9.4-3.2l3.03-2.43l0.15,3.88
		c0.01,0.08,0.46,9.06,6.76,14.81c4.95,4.52,8.52,6.88,29.67,6.89c8.75-0.24,16.66-4.06,23.49-11.38c1.1-1.23,2.36-3.07,3.7-5.01
		c3.17-4.6,6.77-9.82,11.2-12.06c0.97-0.49,2.08-0.9,3.36-1.24c0.12-0.05,0.24-0.09,0.37-0.13c0.1-0.03,0.21-0.07,0.31-0.09
		c0.03-0.01,0.07-0.02,0.1-0.03c0.19-0.05,0.39-0.1,0.59-0.14c0.1-0.03,0.2-0.05,0.3-0.06c0.1-0.02,0.2-0.04,0.31-0.05
		c0.1-0.02,0.2-0.03,0.3-0.05c0.75-0.11,1.46-0.16,1.91-0.13l-0.43,1.48l-0.84,2.81l0,0c-1.54,4.78-2.59,9.15-3.12,13.02
		c-0.43,3.15,0.44,6.25,2.44,8.73c2,2.47,4.85,3.96,8.02,4.2c1.61,0.12,3.38,0.18,5.27,0.18c5.09,0,9.98-0.45,12.44-0.72
		c2.31-0.25,4.47-0.99,6.23-2.15c3.67-2.4,5.48-6.05,7.07-9.26c1.24-2.49,2.3-4.64,4.06-6.01c2.28-1.78,4.88-2.35,7.56-2.83
		c4.35-0.77,8.23-3.34,10.63-7.04c4.87-7.51,13.43-17.49,31.4-17.49c3,0,6.2,0.29,9.49,0.86c7.42,1.29,15.68,1.88,26.01,1.88
		c12.11,0,25.84-0.83,41.74-1.79c9.25-0.56,19.06-1.16,29.67-1.66C354.91,52.27,323.19,50.91,318.46,50.91z M212.86,61.56l0.26-0.5
		c4.91-9.56,9.39-11.73,17.59-12.99c0.26-0.05,0.53-0.07,0.78-0.07c1.38,0,2.7,0.56,3.6,1.53c2.54,2.72,1.18,7.03-0.04,9.98
		c-0.22,0.63-0.74,1.31-3.55,1.91c-0.27,0.06-0.57,0.12-0.89,0.17c-0.06,0.01-0.12,0.03-0.18,0.03c-0.1,0.02-0.2,0.03-0.31,0.05
		c-0.21,0.03-0.42,0.07-0.65,0.1c-0.01,0-0.01,0.01-0.02,0c-0.57,0.08-1.19,0.16-1.89,0.23c-1.93,0.2-4.22,0.39-6.67,0.5
		c-0.23,0.01-0.46,0.02-0.69,0.03c-1.48,0.06-3,0.09-4.55,0.1c-0.16,0.01-0.33,0.01-0.5,0.01h-2.87L212.86,61.56z M34.73,35.95
		c-1.78-0.46-3.62-0.97-5.5-1.52l-0.05-0.02l-0.05-0.01c-5.5-1.97-12.81-5.45-12.81-12.94v-0.07l0.01-0.07
		c0.49-7.14,4.98-11.62,12.02-11.99l0.05-0.01h0.05c8.57,0,12.33,6.15,13,11.9v0.04l0.01,0.04c0.06,0.77,0.23,4.73-1.74,11.83
		l-0.6,1.87l-0.61,1.93l-1.85-0.49L34.73,35.95z M42.73,54.84c0.56-1.43,1.1-2.84,1.62-4.22l0.63-1.87l0.68-2.03
		c0,0,1.03,0.23,2.05,0.44c0.83,0.16,1.65,0.32,1.95,0.35c0.7,0.08,1.37,0.16,1.99,0.2c0.86,0.05,1.78,0.08,2.72,0.08
		c6.8,0,15-1.33,19.52-3.17c4.43-1.8,8.94-5.7,13.09-11.3c0.62-0.87,2.91-3.17,3.96-2.56c0.05,0.02,0.13,0.08,0.14,0.08
		c1.21,0.75-0.31,3.87-0.78,4.58c-4.24,7.04-10.34,17.03-16.21,26.24l-1.1,1.79l-1.17,1.89l-2.13-0.45l-2.06-0.43
		c-7.39-1.42-14.81-3.05-22.54-4.96l-1.93-0.46l-2.21-0.52l0.9-1.85L42.73,54.84z M19.59,72.74l-1.04,1.74
		c-0.39-0.33-1.01-1.01-1.57-1.66c-0.69-0.8-1.3-1.54-1.3-1.54c-1.93-2.49-4.6-6.64-3.38-9.26c0.26-0.55,1.1-1.85,3.24-1.85
		c0.18,0,0.37,0.01,0.55,0.02c1.23,0.12,3.17,0.52,6.02,1.29l1.92,0.62l1.81,0.58l-0.95,1.6l-1.03,1.74c-0.39,0.6-0.78,1.2-1.18,1.8
		c-0.68,1.09-1.37,2.16-2.08,3.21L19.59,72.74z M59.98,82.3l-0.02,0.02l-0.01,0.02c-5.2,6.24-10,8.57-17.69,8.57h-0.05l-0.05-0.01
		c-3.52-0.2-7.42-2-11.91-5.52l-1.56-1.19l-1.68-1.27l1.32-1.73l1.19-1.56c1.98-2.92,4.02-6.18,6.24-10.04l0.97-1.75l1-1.8l1.94,0.6
		l1.91,0.59c5.54,1.58,12.46,3.38,20.61,5.37l2.08,0.44l2.3,0.49l-1.38,1.8l-1.31,1.7C62.39,79.15,61.08,80.91,59.98,82.3z"/>
	<polygon points="50.95,37.06 50.95,37.05 50.95,37.06 	"/>
</g>
</svg>
